<?xml version="1.0" encoding="UTF-8" standalone="no"?>
<!-- Created with Inkscape (http://www.inkscape.org/) -->

<svg
   version="1.1"
   id="svg2"
   width="666.66669"
   height="666.66669"
   viewBox="0 0 666.66669 666.66669"
   xmlns="http://www.w3.org/2000/svg"
   xmlns:svg="http://www.w3.org/2000/svg">
  <defs
     id="defs6">
    <clipPath
       clipPathUnits="userSpaceOnUse"
       id="clipPath16">
      <path
         d="M 0,500 H 500 V 0 H 0 Z"
         id="path14" />
    </clipPath>
  </defs>
  <g
     id="g8"
     transform="matrix(1.3333333,0,0,-1.3333333,0,666.66667)">
    <g
       id="g10">
      <g
         id="g12"
         clip-path="url(#clipPath16)">
        <g
           id="g18"
           transform="translate(106.2047,225.0539)">
          <path
             d="m 0,0 v -5.874 c 0,-0.13 0,-0.261 0.131,-0.261 0.13,-0.13 0.391,-0.13 0.783,-0.261 0.391,0 0.783,-0.13 1.174,-0.13 0.261,0 0.523,0 0.653,0.13 0.261,0 0.392,0.131 0.653,0.261 0.261,0.261 0.522,0.522 0.783,1.045 0.261,0.522 0.261,1.044 0.261,1.696 0,1.175 -0.261,1.958 -0.783,2.611 C 3.133,-0.131 2.349,0.131 1.436,0.131 H 0.653 C 0.392,0.131 0.261,0.131 0.261,0 0,0.131 0,0.131 0,0 m -1.436,-7.44 v 3.133 1.696 1.045 0.652 0.522 c 0,0.261 -0.13,0.523 -0.13,0.653 -0.131,0.131 -0.261,0.261 -0.653,0.392 H -2.48 -2.741 c -0.131,0 -0.131,0 -0.131,0.13 0,0.131 0.131,0.131 0.261,0.131 h 0.653 0.653 0.522 0.261 0.261 0.653 0.652 0.522 c 0.522,0 1.175,0 1.697,-0.131 C 3.785,0.653 4.307,0.522 4.829,0.131 4.96,0 5.091,-0.131 5.221,-0.261 c 0.131,-0.131 0.261,-0.261 0.392,-0.522 0.13,-0.261 0.261,-0.392 0.261,-0.653 0.13,-0.261 0.13,-0.522 0.13,-0.913 0,-0.653 -0.13,-1.306 -0.522,-1.958 C 5.09,-4.96 4.568,-5.743 3.785,-6.396 c 0.783,-0.913 1.436,-1.827 2.089,-2.61 0.652,-0.783 1.174,-1.436 1.696,-1.958 0.523,-0.522 0.914,-0.914 1.306,-1.044 0.391,-0.131 0.652,-0.261 0.913,-0.261 h 0.392 0.261 c 0.131,0 0.131,0 0.131,-0.131 0,-0.13 0,-0.13 -0.131,-0.13 H 10.05 8.745 c -0.522,0 -0.913,0 -1.175,0.13 -0.261,0.131 -0.522,0.131 -0.783,0.261 -0.391,0.261 -0.783,0.522 -1.174,0.914 -0.392,0.391 -0.784,1.044 -1.306,1.697 -0.13,0.261 -0.391,0.522 -0.522,0.783 -0.13,0.261 -0.391,0.522 -0.522,0.783 -0.13,0.261 -0.391,0.392 -0.522,0.653 -0.13,0.261 -0.261,0.391 -0.392,0.522 -0.13,0.13 -0.13,0.13 -0.261,0.13 h -2.219 c -0.13,0 -0.13,0 -0.13,-0.13 v -0.392 -2.349 c 0,-0.653 0,-1.175 0.13,-1.567 0,-0.261 0.131,-0.522 0.131,-0.652 0.131,-0.131 0.261,-0.261 0.522,-0.261 0.131,0 0.261,0 0.392,-0.131 h 0.391 c 0.131,0 0.131,0 0.131,-0.13 0,-0.131 -0.131,-0.131 -0.261,-0.131 H 0.392 -0.261 -0.783 -1.044 -1.305 -1.697 -2.219 -2.741 c -0.131,0 -0.261,0 -0.261,0.131 0,0.13 0,0.13 0.13,0.13 h 0.261 c 0.131,0 0.131,0 0.262,0.131 0.13,0 0.261,0.13 0.391,0.261 0.131,0.13 0.131,0.391 0.131,0.652 0,0.392 0.13,0.914 0.13,1.567 0.261,0.391 0.261,1.174 0.261,2.088"
             style="fill:#171d27;fill-opacity:1;fill-rule:nonzero;stroke:none"
             id="path20" />
        </g>
        <g
           id="g22"
           transform="translate(128.4102,218.3971)">
          <path
             d="m 0,0 h 3.394 c 0.13,0 0.13,0 0.13,0.131 L 1.827,4.96 c -0.13,0.261 -0.261,0.261 -0.261,0 L -0.131,0.131 C -0.131,0 -0.131,0 0,0 M -2.48,-4.046 1.566,7.048 C 1.697,7.309 1.697,7.57 1.827,7.57 l 0.131,0.131 c 0.13,0 0.13,0 0.13,-0.131 0,-0.13 0.131,-0.261 0.261,-0.522 0,-0.13 0.131,-0.391 0.262,-0.783 C 2.741,5.874 3.002,5.221 3.263,4.568 3.524,3.916 3.785,3.133 4.046,2.349 4.307,1.566 4.699,0.783 4.96,0 5.221,-0.783 5.482,-1.436 5.743,-2.088 6.004,-2.741 6.265,-3.394 6.396,-3.785 6.526,-4.177 6.657,-4.568 6.787,-4.829 6.918,-5.09 7.048,-5.221 7.179,-5.482 7.309,-5.613 7.44,-5.743 7.57,-5.743 c 0.131,0 0.262,-0.131 0.262,-0.131 0.13,0 0.261,-0.13 0.391,-0.13 h 0.392 c 0.13,0 0.13,0 0.13,-0.131 0,-0.13 0,-0.13 -0.13,-0.13 H 8.354 7.962 7.309 6.526 5.613 5.221 c -0.131,0 -0.131,0 -0.131,0.13 0,0.131 0,0.131 0.131,0.131 l 0.131,0.13 v 0.261 l -1.697,4.438 c 0,0.131 -0.131,0.131 -0.131,0.131 h -3.785 c -0.131,0 -0.131,0 -0.131,-0.131 l -1.044,-3.132 c -0.13,-0.522 -0.261,-0.914 -0.261,-1.175 0,-0.131 0.131,-0.261 0.261,-0.392 0.131,-0.13 0.261,-0.13 0.392,-0.13 h 0.13 c 0.131,0 0.131,0 0.131,-0.131 0,-0.13 -0.131,-0.13 -0.261,-0.13 H -1.436 -1.827 -2.219 -2.48 -2.741 -3.263 -3.916 -4.568 c -0.261,0 -0.392,0 -0.392,0.13 0,0.131 0,0.131 0.131,0.131 h 0.261 0.261 c 0.391,0 0.652,0.261 0.913,0.522 0.522,0.653 0.653,1.044 0.914,1.436"
             style="fill:#171d27;fill-opacity:1;fill-rule:nonzero;stroke:none"
             id="path24" />
        </g>
        <g
           id="g26"
           transform="translate(149.5297,223.7487)">
          <path
             d="m 0,0 3.394,-9.137 c 0.13,0.392 0.391,0.914 0.652,1.436 0.261,0.653 0.522,1.175 0.783,1.827 0.261,0.653 0.523,1.306 0.784,1.958 0.261,0.653 0.522,1.305 0.783,1.958 0.261,0.653 0.391,1.175 0.652,1.566 0.131,0.523 0.261,0.784 0.392,1.045 0,0.13 0.13,0.261 0.13,0.391 v 0.261 0.261 c 0,0.131 -0.13,0.131 -0.13,0.131 -0.131,0 -0.261,0.13 -0.392,0.13 H 6.787 c -0.13,0 -0.13,0 -0.13,0.131 0,0.13 0.13,0.13 0.391,0.13 h 1.045 0.652 0.131 0.391 0.392 0.391 c 0.262,0 0.262,0 0.262,-0.13 0,-0.131 -0.131,-0.131 -0.262,-0.131 H 9.659 c -0.131,0 -0.392,0 -0.522,-0.13 C 9.006,1.697 9.006,1.566 8.876,1.566 8.876,1.436 8.745,1.436 8.615,1.305 8.484,1.175 8.484,1.044 8.354,0.783 8.223,0.653 8.223,0.392 8.093,0 8.093,-0.131 7.962,-0.392 7.832,-0.653 7.701,-0.914 7.57,-1.305 7.44,-1.827 7.309,-2.219 7.048,-2.741 6.787,-3.263 6.526,-3.785 6.396,-4.307 6.135,-4.829 5.613,-6.135 5.091,-7.309 4.699,-8.223 4.307,-9.137 4.046,-9.789 3.785,-10.312 c -0.261,-0.522 -0.391,-0.913 -0.522,-1.044 -0.13,-0.13 -0.13,-0.261 -0.261,-0.261 -0.13,0 -0.261,0.131 -0.261,0.261 -0.13,0.131 -0.13,0.392 -0.392,0.914 L -2.088,0.522 c -0.131,0.261 -0.131,0.392 -0.261,0.653 -0.131,0.13 -0.131,0.261 -0.262,0.391 -0.13,0.131 -0.261,0.131 -0.261,0.261 -0.13,0 -0.261,0.131 -0.391,0.131 -0.131,0 -0.261,0.13 -0.392,0.13 h -0.261 c -0.13,0 -0.13,0 -0.13,0.131 0,0.13 0.13,0.13 0.391,0.13 h 0.653 0.653 0.522 0.261 0.652 1.045 c 0.261,0 0.391,0 0.391,-0.13 0,-0.131 0,-0.131 -0.13,-0.131 H 0 -0.261 c -0.131,0 -0.131,-0.13 -0.261,-0.13 V 1.827 c 0,-0.13 0,-0.391 0.13,-0.652 C -0.261,0.653 -0.131,0.392 0,0"
             style="fill:#171d27;fill-opacity:1;fill-rule:nonzero;stroke:none"
             id="path28" />
        </g>
        <g
           id="g30"
           transform="translate(172.3931,218.3971)">
          <path
             d="m 0,0 h 3.394 c 0.13,0 0.13,0 0.13,0.131 L 1.827,4.96 c -0.13,0.261 -0.261,0.261 -0.261,0 L 0,0.131 Z M -2.48,-4.046 1.566,7.048 C 1.697,7.309 1.697,7.57 1.827,7.57 l 0.131,0.131 c 0.13,0 0.13,0 0.13,-0.131 0,-0.13 0.131,-0.261 0.261,-0.522 0,-0.13 0.131,-0.391 0.262,-0.783 C 2.741,5.874 3.002,5.221 3.263,4.568 3.524,3.916 3.785,3.133 4.046,2.349 4.307,1.566 4.699,0.783 4.96,0 5.221,-0.783 5.482,-1.436 5.743,-2.088 6.004,-2.741 6.265,-3.394 6.396,-3.785 6.526,-4.177 6.657,-4.568 6.787,-4.829 6.918,-5.09 7.048,-5.221 7.179,-5.482 7.309,-5.613 7.44,-5.743 7.57,-5.743 c 0.131,0 0.262,-0.131 0.262,-0.131 0.13,0 0.261,-0.13 0.391,-0.13 h 0.392 c 0.13,0 0.13,0 0.13,-0.131 0,-0.13 0,-0.13 -0.13,-0.13 H 8.354 7.962 7.309 6.526 5.613 5.221 c -0.131,0 -0.131,0 -0.131,0.13 0,0.131 0,0.131 0.131,0.131 l 0.131,0.13 v 0.261 l -1.697,4.438 c 0,0.131 -0.131,0.131 -0.131,0.131 h -3.785 c -0.131,0 -0.131,0 -0.131,-0.131 l -1.044,-3.132 c -0.13,-0.131 -0.13,-0.522 -0.13,-0.914 0,-0.131 0.13,-0.261 0.261,-0.392 0.13,-0.13 0.261,-0.13 0.391,-0.13 h 0.131 c 0.13,0 0.13,0 0.13,-0.131 0,-0.13 -0.13,-0.13 -0.261,-0.13 h -0.391 -0.392 -0.391 -0.261 -0.262 -0.522 -0.652 -0.653 c -0.261,0 -0.391,0 -0.391,0.13 0,0.131 0,0.131 0.13,0.131 h 0.261 0.261 c 0.392,0 0.653,0.261 0.914,0.522 0.522,0.392 0.652,0.783 0.783,1.175"
             style="fill:#171d27;fill-opacity:1;fill-rule:nonzero;stroke:none"
             id="path32" />
        </g>
        <g
           id="g34"
           transform="translate(193.3821,223.3571)">
          <path
             d="m 0,0 0.261,-8.615 v -0.913 c 0,-0.261 0.131,-0.392 0.131,-0.653 0.13,-0.131 0.13,-0.261 0.261,-0.392 0.13,-0.13 0.13,-0.13 0.261,-0.13 0.13,0 0.261,-0.131 0.522,-0.131 h 0.391 c 0.131,0 0.131,0 0.131,-0.13 0,-0.131 -0.131,-0.131 -0.392,-0.131 H 0.261 -0.392 -1.044 -2.088 c -0.131,0 -0.261,0 -0.261,0.131 0,0.13 0,0.13 0.13,0.13 h 0.261 c 0.131,0 0.261,0 0.392,0.131 0.261,0 0.391,0.261 0.391,0.522 0.131,0.261 0.131,0.914 0.131,1.697 V 1.697 2.349 c 0,0.131 0.13,0.262 0.13,0.262 0,0 0.131,-0.131 0.261,-0.262 L -0.261,1.958 C -0.131,1.827 0,1.697 0.392,1.305 0.783,0.914 1.175,0.522 1.697,-0.131 2.219,-0.653 2.872,-1.305 3.394,-2.088 4.046,-2.741 4.699,-3.524 5.482,-4.177 5.874,-4.699 6.396,-5.221 6.787,-5.613 7.179,-6.135 7.701,-6.526 8.093,-7.048 8.484,-7.44 8.876,-7.832 9.137,-8.223 9.398,-8.615 9.659,-8.745 9.789,-8.876 L 9.528,0.261 c 0,0.522 0,1.044 -0.13,1.175 C 9.267,1.697 9.137,1.827 8.876,1.958 H 8.354 7.962 c -0.13,0 -0.13,0 -0.13,0.13 0,0.131 0.13,0.131 0.391,0.131 h 0.653 0.522 0.391 0.261 0.523 1.044 c 0.261,0 0.261,0 0.261,-0.131 0,-0.13 0,-0.13 -0.131,-0.13 h -0.13 -0.261 C 11.095,1.827 10.834,1.697 10.834,1.566 10.703,1.305 10.703,0.914 10.703,0.392 v -10.442 -0.653 -0.392 -0.13 h -0.13 -0.131 c 0,0 -0.13,0.13 -0.261,0.13 l -0.392,0.392 c -0.13,0.13 -0.391,0.391 -0.522,0.653 0,0 -0.261,0.261 -0.522,0.522 C 8.354,-9.267 7.962,-8.876 7.57,-8.354 7.179,-7.832 6.657,-7.44 6.135,-6.787 5.613,-6.265 5.09,-5.743 4.699,-5.221 4.177,-4.699 3.655,-4.177 3.133,-3.524 2.611,-3.002 2.219,-2.48 1.827,-1.958 1.436,-1.436 1.044,-1.044 0.653,-0.783 0.261,-0.392 0.131,-0.131 0,0"
             style="fill:#171d27;fill-opacity:1;fill-rule:nonzero;stroke:none"
             id="path36" />
        </g>
        <g
           id="g38"
           transform="translate(220.2135,218.3971)">
          <path
             d="m 0,0 h 3.394 c 0.13,0 0.13,0 0.13,0.131 L 1.827,4.96 c -0.13,0.261 -0.261,0.261 -0.261,0 L 0,0.131 C -0.131,0 -0.131,0 0,0 M -2.48,-4.046 1.566,7.048 C 1.697,7.309 1.697,7.57 1.827,7.57 l 0.131,0.131 c 0.13,0 0.13,0 0.13,-0.131 0,-0.13 0.131,-0.261 0.261,-0.522 0,-0.13 0.131,-0.391 0.262,-0.783 C 2.741,5.874 3.002,5.221 3.263,4.568 3.524,3.916 3.785,3.133 4.046,2.349 4.307,1.566 4.699,0.783 4.96,0 5.221,-0.783 5.482,-1.436 5.743,-2.088 6.004,-2.741 6.265,-3.394 6.396,-3.785 6.526,-4.177 6.657,-4.568 6.787,-4.829 6.918,-5.09 7.048,-5.221 7.179,-5.482 7.309,-5.613 7.44,-5.743 7.57,-5.743 c 0.131,0 0.262,-0.131 0.262,-0.131 0.13,0 0.261,-0.13 0.391,-0.13 h 0.392 c 0.13,0 0.13,0 0.13,-0.131 0,-0.13 0,-0.13 -0.13,-0.13 H 8.354 7.962 7.309 6.526 5.613 5.221 c -0.131,0 -0.131,0 -0.131,0.13 0,0.131 0,0.131 0.131,0.131 l 0.131,0.13 v 0.261 l -1.697,4.438 c 0,0.131 -0.131,0.131 -0.131,0.131 h -3.785 c -0.131,0 -0.131,0 -0.131,-0.131 l -1.044,-3.132 c -0.13,-0.522 -0.261,-0.914 -0.261,-1.175 0,-0.131 0.131,-0.261 0.261,-0.392 0.131,-0.13 0.261,-0.13 0.392,-0.13 h 0.13 c 0.131,0 0.131,0 0.131,-0.131 0,-0.13 -0.131,-0.13 -0.261,-0.13 H -1.436 -1.827 -2.219 -2.48 -2.741 -3.263 -3.916 -4.568 c -0.261,0 -0.392,0 -0.392,0.13 0,0.131 0,0.131 0.131,0.131 h 0.261 0.261 c 0.391,0 0.652,0.261 0.913,0.522 0.522,0.653 0.653,1.044 0.914,1.436"
             style="fill:#171d27;fill-opacity:1;fill-rule:nonzero;stroke:none"
             id="path40" />
        </g>
        <g
           id="g42"
           transform="translate(256.8398,218.3971)">
          <path
             d="m 0,0 h 3.394 c 0.13,0 0.13,0 0.13,0.131 L 1.827,4.96 c -0.13,0.261 -0.261,0.261 -0.261,0 L 0,0.131 C -0.131,0 -0.131,0 0,0 M -2.48,-4.046 1.566,7.048 C 1.697,7.309 1.697,7.57 1.827,7.57 l 0.131,0.131 c 0.13,0 0.13,0 0.13,-0.131 0,-0.13 0.131,-0.261 0.261,-0.522 0,-0.13 0.131,-0.391 0.262,-0.783 C 2.741,5.874 3.002,5.221 3.263,4.568 3.524,3.916 3.785,3.133 4.046,2.349 4.307,1.566 4.699,0.783 4.96,0 5.221,-0.783 5.482,-1.436 5.743,-2.088 6.004,-2.741 6.265,-3.394 6.396,-3.785 6.526,-4.177 6.657,-4.568 6.787,-4.829 6.918,-5.09 7.048,-5.221 7.179,-5.482 7.309,-5.613 7.44,-5.743 7.57,-5.743 c 0.131,0 0.262,-0.131 0.262,-0.131 0.13,0 0.261,-0.13 0.391,-0.13 h 0.392 c 0.13,0 0.13,0 0.13,-0.131 0,-0.13 0,-0.13 -0.13,-0.13 H 8.354 7.962 7.309 6.526 5.613 5.221 c -0.13,0 -0.13,0 -0.13,0.13 0,0.131 0,0.131 0.13,0.131 l 0.131,0.13 v 0.261 l -1.697,4.438 c 0,0.131 -0.131,0.131 -0.131,0.131 h -3.785 c -0.131,0 -0.131,0 -0.131,-0.131 l -1.044,-3.132 c -0.13,-0.522 -0.261,-0.914 -0.261,-1.175 0,-0.131 0.131,-0.261 0.261,-0.392 0.131,-0.13 0.261,-0.13 0.392,-0.13 h 0.13 c 0.131,0 0.131,0 0.131,-0.131 0,-0.13 -0.131,-0.13 -0.261,-0.13 H -1.436 -1.827 -2.219 -2.48 -2.741 -3.263 -3.916 -4.568 c -0.261,0 -0.392,0 -0.392,0.13 0,0.131 0,0.131 0.131,0.131 h 0.261 0.261 c 0.391,0 0.652,0.261 0.913,0.522 0.522,0.653 0.653,1.044 0.914,1.436"
             style="fill:#171d27;fill-opacity:1;fill-rule:nonzero;stroke:none"
             id="path44" />
        </g>
        <g
           id="g46"
           transform="translate(285.9213,213.9592)">
          <path
             d="m 0,0 v 3.002 0.783 c 0,0.261 0,0.392 -0.131,0.522 0,0.131 -0.13,0.261 -0.261,0.261 -0.13,0.131 -0.261,0.131 -0.391,0.131 h -0.261 -0.261 c -0.131,0 -0.131,0 -0.131,0.13 0,0.131 0.131,0.131 0.261,0.131 h 0.653 0.653 0.522 0.261 0.261 0.391 0.522 0.523 c 0.13,0 0.261,0 0.261,-0.131 0,-0.13 0,-0.13 -0.131,-0.13 H 2.611 2.349 C 2.088,4.699 1.958,4.568 1.827,4.438 1.697,4.307 1.697,4.046 1.697,3.785 V 2.872 1.827 -0.131 -0.653 -0.914 c 0,-0.13 0,-0.13 -0.131,-0.13 L 1.436,-1.175 C 1.175,-1.305 0.783,-1.436 0.522,-1.566 0.131,-1.697 -0.13,-1.697 -0.522,-1.827 -0.914,-1.958 -1.175,-1.958 -1.566,-1.958 H -2.48 c -0.392,0 -0.783,0 -1.175,0.131 -0.522,0 -0.913,0.13 -1.566,0.261 -0.522,0.13 -1.044,0.391 -1.566,0.652 -0.522,0.261 -1.045,0.653 -1.567,1.045 -0.261,0.261 -0.522,0.522 -0.783,0.913 -0.261,0.392 -0.522,0.783 -0.652,1.175 -0.131,0.392 -0.392,0.914 -0.392,1.436 -0.13,0.522 -0.13,1.044 -0.13,1.566 0,0.653 0.13,1.436 0.261,1.958 0.13,0.653 0.391,1.175 0.652,1.697 0.261,0.522 0.653,0.913 0.914,1.305 0.391,0.392 0.783,0.653 1.175,0.914 0.391,0.261 0.783,0.391 1.305,0.652 l 1.175,0.392 c 0.391,0.13 0.783,0.13 1.174,0.13 h 1.045 0.913 c 0.261,0 0.522,0 0.783,-0.13 0.261,0 0.522,0 0.653,-0.131 0.131,0 0.261,0 0.392,-0.13 0.13,0 0.391,-0.131 0.652,-0.131 h 0.783 c 0.131,0 0.131,0 0.131,-0.13 V 11.486 11.225 10.834 10.051 9.006 8.745 L 1.566,8.615 c 0,0 -0.13,0.13 -0.13,0.261 0,0.13 0,0.261 -0.131,0.522 0,0.261 -0.13,0.391 -0.261,0.653 -0.13,0.13 -0.261,0.261 -0.522,0.522 -0.261,0.13 -0.522,0.391 -0.914,0.522 -0.391,0.13 -0.783,0.261 -1.305,0.391 -0.522,0.131 -1.044,0.131 -1.566,0.131 h -0.914 c -0.261,0 -0.652,-0.131 -0.913,-0.131 -0.262,-0.13 -0.653,-0.13 -1.045,-0.391 C -6.526,10.964 -6.787,10.703 -7.179,10.442 -7.701,10.051 -8.093,9.398 -8.484,8.615 -8.876,7.832 -9.006,6.918 -9.006,5.874 c 0,-0.653 0.13,-1.175 0.261,-1.697 0.13,-0.522 0.261,-1.044 0.522,-1.436 0.261,-0.392 0.391,-0.783 0.653,-1.044 0.261,-0.261 0.391,-0.522 0.652,-0.653 0.653,-0.652 1.436,-1.174 2.219,-1.566 0.783,-0.261 1.566,-0.392 2.48,-0.392 h 0.522 c 0.261,0 0.392,0 0.653,0.131 0.13,0 0.391,0.13 0.522,0.13 0.13,0 0.261,0.131 0.392,0.131 C -0.131,-0.522 0,-0.261 0,0"
             style="fill:#171d27;fill-opacity:1;fill-rule:nonzero;stroke:none"
             id="path48" />
        </g>
        <g
           id="g50"
           transform="translate(302.9894,218.3971)">
          <path
             d="m 0,0 h 3.394 c 0.13,0 0.13,0 0.13,0.131 L 1.827,4.96 c -0.13,0.261 -0.261,0.261 -0.261,0 L 0,0.131 Z M -2.48,-4.046 1.566,7.048 C 1.697,7.309 1.697,7.57 1.827,7.57 l 0.131,0.131 c 0.13,0 0.13,0 0.13,-0.131 0,-0.13 0.131,-0.261 0.261,-0.522 0,-0.13 0.131,-0.391 0.262,-0.783 C 2.741,5.874 3.002,5.221 3.263,4.568 3.524,3.916 3.785,3.133 4.046,2.349 4.307,1.566 4.699,0.783 4.96,0 5.221,-0.783 5.482,-1.436 5.743,-2.088 6.004,-2.741 6.265,-3.394 6.396,-3.785 6.526,-4.177 6.657,-4.568 6.787,-4.829 6.918,-5.09 7.048,-5.221 7.179,-5.482 7.309,-5.613 7.44,-5.743 7.57,-5.743 c 0.131,0 0.262,-0.131 0.262,-0.131 0.13,0 0.261,-0.13 0.391,-0.13 h 0.392 c 0.13,0 0.13,0 0.13,-0.131 0,-0.13 0,-0.13 -0.13,-0.13 H 8.354 7.962 7.309 6.526 5.613 5.221 c -0.13,0 -0.13,0 -0.13,0.13 0,0.131 0,0.131 0.13,0.131 l 0.131,0.13 v 0.261 l -1.697,4.438 c 0,0.131 -0.131,0.131 -0.131,0.131 h -3.785 c -0.131,0 -0.131,0 -0.131,-0.131 l -1.044,-3.132 c -0.13,-0.522 -0.261,-0.914 -0.261,-1.175 0,-0.131 0.131,-0.261 0.261,-0.392 0.131,-0.13 0.261,-0.13 0.392,-0.13 h 0.13 c 0.131,0 0.131,0 0.131,-0.131 0,-0.13 -0.131,-0.13 -0.261,-0.13 H -1.436 -1.827 -2.219 -2.48 -2.741 -3.263 -3.916 -4.568 c -0.261,0 -0.392,0 -0.392,0.13 0,0.131 0,0.131 0.131,0.131 h 0.261 0.261 c 0.391,0 0.652,0.261 0.913,0.522 0.522,0.653 0.783,1.044 0.914,1.436"
             style="fill:#171d27;fill-opacity:1;fill-rule:nonzero;stroke:none"
             id="path52" />
        </g>
        <g
           id="g54"
           transform="translate(325.6752,215.5255)">
          <path
             d="m 0,0 v 1.566 0.653 c 0,0.13 0,0.392 -0.131,0.522 0,0.131 0,0.261 -0.13,0.392 0,0.13 -0.131,0.261 -0.131,0.391 0,0 -0.13,0.131 -0.261,0.392 -0.13,0.261 -0.261,0.522 -0.522,0.783 -0.261,0.261 -0.391,0.653 -0.652,1.044 -0.261,0.392 -0.392,0.783 -0.653,1.175 -0.261,0.391 -0.392,0.652 -0.653,1.044 -0.13,0.261 -0.391,0.522 -0.391,0.653 -0.261,0.391 -0.392,0.652 -0.653,0.783 -0.261,0.261 -0.391,0.391 -0.522,0.522 -0.13,0.13 -0.261,0.13 -0.392,0.261 -0.13,0 -0.261,0.131 -0.391,0.131 -0.131,0 -0.131,0 -0.131,0.13 0,0.131 0.131,0.131 0.261,0.131 h 0.392 0.522 0.522 0.261 0.522 0.914 c 0.131,0 0.131,0 0.261,-0.131 v -0.13 c 0,0 0,-0.131 -0.13,-0.131 0,0 -0.131,0 -0.261,-0.131 C -2.48,9.92 -2.611,9.92 -2.611,9.789 V 9.528 c 0,-0.13 0.131,-0.261 0.131,-0.391 C -2.349,9.006 -2.349,8.876 -2.088,8.615 -1.958,8.354 -1.697,7.962 -1.566,7.57 -1.305,7.179 -1.044,6.787 -0.783,6.396 -0.522,6.004 -0.261,5.482 0,5.09 0.261,4.699 0.392,4.438 0.653,4.046 0.783,3.785 0.914,3.524 1.044,3.524 c 0,0.131 0.131,0.261 0.261,0.653 0.131,0.261 0.392,0.652 0.522,1.044 0.261,0.392 0.392,0.653 0.653,1.175 0.261,0.391 0.392,0.783 0.653,1.174 0.261,0.392 0.391,0.653 0.522,0.914 0.13,0.261 0.261,0.522 0.391,0.522 0.131,0.131 0.131,0.392 0.261,0.522 0,0.131 0.131,0.261 0.131,0.392 0,0.13 0,0.261 -0.131,0.261 0,0.131 -0.13,0.131 -0.261,0.131 -0.13,0.13 -0.261,0.13 -0.261,0.13 0,0.131 0.131,0.131 0.261,0.131 h 0.653 0.392 0.261 0.522 0.522 0.391 c 0.131,0 0.261,0 0.261,-0.131 0,-0.13 -0.13,-0.13 -0.261,-0.13 -0.13,0 -0.261,0 -0.391,-0.131 C 6.265,10.181 6.135,10.05 6.004,10.05 5.874,9.92 5.613,9.789 5.482,9.659 5.352,9.528 5.221,9.267 4.96,9.137 4.829,9.006 4.699,8.745 4.568,8.484 4.438,8.223 4.177,7.832 3.916,7.44 3.655,7.048 3.394,6.657 3.133,6.265 2.872,5.874 2.611,5.482 2.48,5.091 2.219,4.699 2.088,4.438 1.958,4.046 1.827,3.785 1.697,3.524 1.697,3.394 1.566,3.002 1.436,2.741 1.436,2.48 V 1.566 0 -0.783 c 0,-0.392 0,-0.653 0.13,-1.044 0,-0.261 0.131,-0.522 0.131,-0.653 0.13,-0.131 0.261,-0.261 0.522,-0.261 0.13,0 0.261,0 0.392,-0.131 h 0.391 c 0.131,0 0.131,0 0.131,-0.13 0,-0.131 -0.131,-0.131 -0.261,-0.131 H 2.088 1.436 0.914 0.653 0.392 0 -0.522 -1.044 c -0.131,0 -0.261,0 -0.261,0.131 0,0.13 0,0.13 0.13,0.13 h 0.261 c 0.131,0 0.131,0 0.261,0.131 0.131,0 0.261,0.13 0.392,0.261 0.13,0.131 0.13,0.392 0.13,0.653 v 1.044 C 0,-0.392 0,-0.131 0,0"
             style="fill:#171d27;fill-opacity:1;fill-rule:nonzero;stroke:none"
             id="path56" />
        </g>
        <g
           id="g58"
           transform="translate(344.487,217.614)">
          <path
             d="m 0,0 v 3.133 1.696 1.045 0.652 0.522 c 0,0.261 -0.131,0.522 -0.131,0.653 -0.13,0.131 -0.261,0.261 -0.652,0.392 h -0.261 -0.261 c -0.131,0 -0.131,0 -0.131,0.13 0,0.131 0.131,0.131 0.261,0.131 h 0.653 0.653 0.783 0.652 1.306 1.305 0.783 c 0.392,0 0.653,0 0.783,0.13 0,0 0.131,0 0.131,0.131 h 0.13 c 0,0 0.131,0 0.131,-0.131 0,-0.13 0,-0.13 -0.131,-0.261 0,-0.13 0,-0.261 -0.13,-0.522 V 7.44 7.048 6.657 6.396 6.265 H 5.743 c -0.13,0 -0.13,0.131 -0.13,0.261 v 0.261 c 0,0.131 0,0.261 -0.131,0.392 C 5.352,7.309 5.352,7.44 5.091,7.57 4.96,7.701 4.699,7.701 4.177,7.832 H 3.655 2.872 2.088 1.697 C 1.566,7.832 1.566,7.701 1.566,7.57 V 2.611 c 0,-0.131 0,-0.131 0.131,-0.131 h 0.522 0.783 0.914 0.652 c 0.261,0 0.392,0 0.523,0.131 0.13,0 0.261,0.13 0.391,0.13 0.131,0.131 0.131,0.261 0.261,0.261 0.131,0 0.131,0 0.131,-0.13 0,-0.131 0,-0.131 -0.131,-0.392 0,-0.131 0,-0.392 -0.13,-0.653 V 1.566 1.175 0.914 0.653 0.392 c 0,-0.131 0,-0.131 -0.131,-0.131 -0.13,0 -0.13,0 -0.13,0.131 v 0.261 0.261 c 0,0.13 -0.131,0.261 -0.261,0.391 C 4.96,1.436 4.699,1.436 4.438,1.566 H 3.916 3.133 2.349 1.958 c -0.131,0 -0.131,0 -0.131,-0.13 v -1.567 -0.652 -0.914 -0.914 -0.522 c 0,-0.261 0,-0.522 0.131,-0.783 0,-0.13 0.13,-0.391 0.261,-0.391 0.13,-0.131 0.392,-0.261 0.653,-0.261 h 1.044 0.783 c 0.261,0 0.653,0.13 0.914,0.13 0.261,0.131 0.391,0.261 0.522,0.392 0.13,0.261 0.261,0.522 0.261,0.913 0,0.131 0.13,0.261 0.13,0.261 0,0 0.131,0 0.131,-0.13 v -0.131 -0.261 -0.522 c 0,-0.13 0,-0.391 -0.131,-0.522 0,-0.13 0,-0.391 -0.13,-0.391 0,-0.131 -0.131,-0.262 -0.131,-0.262 l -0.13,-0.13 c -0.131,0 -0.131,-0.131 -0.261,-0.131 H 5.482 3.655 2.48 c -0.392,0 -0.653,0 -0.914,0.131 H 1.044 0.783 0.261 -0.261 -0.783 c -0.131,0 -0.261,0 -0.261,0.13 0,0.131 0,0.131 0.13,0.131 h 0.261 c 0.131,0 0.131,0 0.261,0.131 0.131,0 0.261,0.13 0.392,0.261 0.131,0.13 0.131,0.391 0.131,0.652 0,0.392 0.13,0.914 0.13,1.567 C 0,-1.697 0,-0.914 0,0"
             style="fill:#171d27;fill-opacity:1;fill-rule:nonzero;stroke:none"
             id="path60" />
        </g>
        <g
           id="g62"
           transform="translate(365.0583,223.7487)">
          <path
             d="m 0,0 3.394,-9.137 c 0.13,0.392 0.391,0.914 0.652,1.436 0.261,0.653 0.522,1.175 0.783,1.827 0.262,0.653 0.523,1.306 0.784,1.958 0.261,0.653 0.522,1.305 0.783,1.958 0.261,0.653 0.391,1.175 0.652,1.566 0.131,0.523 0.261,0.784 0.392,1.045 0,0.13 0.13,0.261 0.13,0.391 v 0.261 0.261 c 0,0.131 -0.13,0.131 -0.13,0.131 -0.131,0 -0.261,0.13 -0.392,0.13 H 6.787 c -0.13,0 -0.13,0 -0.13,0.131 0,0.13 0.13,0.13 0.391,0.13 h 1.045 0.652 0.131 0.391 0.392 0.392 c 0.261,0 0.261,0 0.261,-0.13 0,-0.131 -0.131,-0.131 -0.261,-0.131 H 9.659 c -0.131,0 -0.392,0 -0.522,-0.13 C 9.006,1.697 9.006,1.566 8.876,1.566 8.876,1.436 8.745,1.436 8.615,1.305 8.484,1.175 8.484,1.044 8.354,0.783 8.223,0.653 8.093,0.392 8.093,0 8.093,-0.131 7.962,-0.392 7.832,-0.653 7.701,-0.914 7.571,-1.305 7.44,-1.827 7.309,-2.219 7.048,-2.741 6.787,-3.263 6.526,-3.785 6.396,-4.307 6.135,-4.829 5.613,-6.135 5.091,-7.309 4.699,-8.223 4.307,-9.137 4.046,-9.789 3.785,-10.312 c -0.261,-0.522 -0.391,-0.913 -0.522,-1.044 -0.13,-0.13 -0.13,-0.261 -0.261,-0.261 -0.13,0 -0.261,0.131 -0.261,0.261 0,0.131 -0.13,0.392 -0.391,0.914 L -2.088,0.522 c -0.131,0.261 -0.131,0.392 -0.261,0.653 -0.131,0.13 -0.131,0.261 -0.261,0.391 -0.131,0.131 -0.262,0.131 -0.262,0.261 -0.13,0 -0.261,0.131 -0.391,0.131 -0.131,0 -0.261,0.13 -0.392,0.13 h -0.261 c -0.13,0 -0.13,0 -0.13,0.131 0,0.13 0.13,0.13 0.391,0.13 h 0.653 0.653 0.522 0.261 0.652 1.045 c 0.261,0 0.391,0 0.391,-0.13 0,-0.131 0,-0.131 -0.13,-0.131 H 0 -0.261 c -0.131,0 -0.131,-0.13 -0.261,-0.13 V 1.827 c 0,-0.13 0,-0.391 0.13,-0.652 C -0.261,0.653 -0.131,0.392 0,0"
             style="fill:#171d27;fill-opacity:1;fill-rule:nonzero;stroke:none"
             id="path64" />
        </g>
        <g
           id="g66"
           transform="translate(388.0522,218.3971)">
          <path
             d="m 0,0 h 3.394 c 0.13,0 0.13,0 0.13,0.131 L 1.827,4.96 c -0.13,0.261 -0.261,0.261 -0.261,0 L -0.131,0.131 C -0.131,0 -0.131,0 0,0 M -2.48,-4.046 1.566,7.048 C 1.697,7.309 1.697,7.57 1.827,7.57 l 0.131,0.131 c 0.13,0 0.13,0 0.13,-0.131 0,-0.13 0.131,-0.261 0.261,-0.522 0,-0.13 0.131,-0.391 0.262,-0.783 C 2.741,5.874 3.002,5.221 3.263,4.568 3.524,3.916 3.785,3.133 4.046,2.349 4.307,1.566 4.699,0.783 4.96,0 5.221,-0.783 5.482,-1.436 5.743,-2.088 6.004,-2.741 6.265,-3.394 6.396,-3.785 6.526,-4.177 6.657,-4.568 6.787,-4.829 6.918,-5.09 7.048,-5.221 7.179,-5.482 7.309,-5.613 7.44,-5.743 7.57,-5.743 c 0.131,0 0.262,-0.131 0.262,-0.131 0.13,0 0.261,-0.13 0.391,-0.13 h 0.392 c 0.13,0 0.13,0 0.13,-0.131 0,-0.13 0,-0.13 -0.13,-0.13 H 8.354 7.962 7.309 6.526 5.613 5.221 c -0.13,0 -0.13,0 -0.13,0.13 0,0.131 0,0.131 0.13,0.131 l 0.131,0.13 v 0.261 l -1.697,4.438 c 0,0.131 -0.131,0.131 -0.131,0.131 h -3.785 c -0.131,0 -0.131,0 -0.131,-0.131 l -1.044,-3.132 c -0.13,-0.522 -0.261,-0.914 -0.261,-1.175 0,-0.131 0.131,-0.261 0.261,-0.392 0.131,-0.13 0.261,-0.13 0.392,-0.13 h 0.13 c 0.131,0 0.131,0 0.131,-0.131 0,-0.13 -0.131,-0.13 -0.261,-0.13 H -1.436 -1.827 -2.219 -2.48 -2.741 -3.263 -3.916 -4.568 c -0.261,0 -0.392,0 -0.392,0.13 0,0.131 0,0.131 0.131,0.131 h 0.261 0.261 c 0.391,0 0.652,0.261 0.913,0.522 0.522,0.653 0.653,1.044 0.914,1.436"
             style="fill:#171d27;fill-opacity:1;fill-rule:nonzero;stroke:none"
             id="path68" />
        </g>
        <g
           id="g70"
           transform="translate(24.0457,283.8218)">
          <path
             d="m 0,0 v -15.01 c 0,-0.523 0.131,-0.784 0.392,-0.914 0.522,-0.131 1.044,-0.261 1.827,-0.392 0.653,-0.13 1.305,-0.13 1.958,-0.13 1.044,0 1.697,0 2.088,0.13 0.522,0.131 0.914,0.392 1.305,0.653 0.784,0.522 1.436,1.436 1.958,2.61 0.653,1.175 0.914,2.741 0.914,4.83 0,1.697 -0.261,3.263 -0.783,4.307 C 9.137,-2.741 8.484,-1.827 7.701,-1.175 6.918,-0.522 6.135,0 5.221,0.261 4.307,0.522 3.524,0.653 2.872,0.653 1.566,0.653 0.653,0.522 0.261,0.392 0.261,0.522 0,0.261 0,0 m -5.743,-19.84 v 8.615 4.568 2.872 1.697 c 0,0.522 0,0.913 -0.131,1.305 0,0.914 -0.13,1.566 -0.391,1.958 -0.261,0.391 -0.783,0.783 -1.697,0.913 -0.261,0 -0.522,0.131 -0.914,0.131 H -9.92 c -0.522,0 -0.783,0.13 -0.783,0.392 0,0.261 0.391,0.391 1.044,0.391 1.305,0 2.611,0 3.916,-0.13 1.305,0 2.219,-0.131 2.741,-0.131 h 2.219 c 0.914,0 1.827,0 2.741,0.131 0.914,0 1.566,0.13 2.088,0.13 1.567,0 3.133,-0.13 4.699,-0.391 1.567,-0.262 3.002,-0.784 4.308,-1.697 0.522,-0.261 0.913,-0.783 1.435,-1.436 0.522,-0.653 1.045,-1.436 1.306,-2.35 0.391,-0.913 0.522,-1.827 0.522,-3.002 0,-1.827 -0.522,-3.654 -1.436,-5.351 -0.914,-1.697 -2.611,-3.655 -5.091,-5.743 2.219,-2.741 4.177,-5.221 5.874,-7.44 1.697,-2.219 3.394,-4.047 4.83,-5.613 1.435,-1.436 2.48,-2.349 3.524,-2.741 1.044,-0.392 1.697,-0.653 1.958,-0.653 0.522,-0.13 1.044,-0.13 1.435,-0.13 0.392,0 0.653,-0.131 0.653,-0.392 0,-0.391 -0.261,-0.522 -0.914,-0.522 H 22.45 c -1.435,0 -2.48,0.131 -3.132,0.261 -0.783,0.131 -1.436,0.392 -2.089,0.783 -1.044,0.523 -2.088,1.436 -3.132,2.611 -1.044,1.175 -2.219,2.741 -3.655,4.699 -0.653,0.914 -1.305,1.827 -2.088,2.741 -0.653,0.914 -1.306,1.827 -1.697,2.48 -0.522,0.783 -0.914,1.175 -1.175,1.436 -0.13,0.261 -0.522,0.391 -0.914,0.391 l -4.307,0.131 c -0.261,0 -0.392,-0.131 -0.392,-0.392 v -0.391 -6.266 c 0,-1.827 0.131,-3.263 0.262,-4.307 0.13,-0.783 0.261,-1.305 0.391,-1.827 0.261,-0.522 0.783,-0.783 1.436,-0.914 0.391,0 0.783,-0.131 1.175,-0.131 0.522,0 0.913,-0.13 1.174,-0.13 0.392,0 0.653,-0.131 0.653,-0.392 0,-0.391 -0.392,-0.522 -1.044,-0.522 -0.914,0 -1.958,0 -3.002,0.131 -1.045,0 -1.958,0 -2.741,0.13 H -3.394 -4.96 c -0.653,0 -1.436,0 -2.349,-0.13 -0.784,0 -1.567,-0.131 -2.219,-0.131 -0.653,0 -1.045,0.131 -1.045,0.522 0,0.261 0.261,0.392 0.784,0.392 0.391,0 0.652,0 1.044,0.13 0.261,0 0.522,0.131 0.783,0.131 0.522,0.13 0.783,0.392 1.044,0.914 0.131,0.522 0.261,1.044 0.392,1.827 0.13,1.044 0.261,2.48 0.261,4.307 0.522,1.828 0.522,3.916 0.522,6.135"
             style="fill:#171d27;fill-opacity:1;fill-rule:nonzero;stroke:none"
             id="path72" />
        </g>
        <g
           id="g74"
           transform="translate(65.8232,265.0261)">
          <path
             d="M 0,0 H 9.006 C 9.267,0 9.267,0.131 9.267,0.261 L 4.829,12.53 c 0,0.131 -0.13,0.131 -0.13,0.262 0,0.13 -0.131,0.13 -0.131,0.13 -0.13,0 -0.261,-0.13 -0.261,-0.392 L -0.261,0.392 C -0.261,0.131 -0.261,0 0,0 M 9.92,-2.48 H -1.044 c -0.131,0 -0.392,-0.131 -0.392,-0.392 l -2.61,-7.048 c -0.261,-0.653 -0.392,-1.175 -0.522,-1.827 -0.131,-0.522 -0.261,-0.914 -0.261,-1.175 0,-0.392 0.13,-0.783 0.391,-1.175 0.261,-0.261 0.783,-0.391 1.566,-0.391 h 0.784 c 0.522,0 0.783,-0.131 0.783,-0.392 0,-0.392 -0.261,-0.522 -0.783,-0.522 -0.784,0 -1.697,0 -2.611,0.13 -0.914,0 -1.827,0.131 -2.61,0.131 -0.262,0 -0.914,0 -2.089,-0.131 -1.175,0 -2.349,-0.13 -3.655,-0.13 -0.652,0 -0.913,0.13 -0.913,0.522 0,0.261 0.261,0.392 0.652,0.392 h 0.784 c 0.261,0 0.522,0 0.652,0.13 1.175,0.131 2.089,0.653 2.611,1.436 0.522,0.783 1.174,1.827 1.566,3.002 l 12.4,30.935 c 0.261,0.652 0.522,1.174 0.653,1.566 0.261,0.261 0.391,0.392 0.652,0.392 0.392,0 0.783,-0.523 1.175,-1.567 0.261,-0.522 0.522,-1.305 1.044,-2.61 0.522,-1.306 1.175,-2.872 1.827,-4.699 0.784,-1.828 1.567,-3.785 2.35,-6.004 0.914,-2.089 1.697,-4.308 2.61,-6.396 0.914,-2.089 1.697,-4.046 2.35,-6.004 0.783,-1.828 1.436,-3.394 1.827,-4.569 0.653,-1.436 1.175,-2.61 1.697,-3.263 0.522,-0.783 1.044,-1.175 1.436,-1.566 0.391,-0.261 0.783,-0.392 1.175,-0.522 0.391,-0.131 0.783,-0.131 1.044,-0.131 h 1.044 c 0.392,0 0.653,-0.13 0.653,-0.391 0,-0.261 -0.131,-0.392 -0.392,-0.392 -0.261,-0.131 -0.914,-0.131 -1.827,-0.131 h -3.786 c -1.696,0 -3.524,0 -5.482,0.131 -0.391,0 -0.783,0 -1.044,0.131 -0.261,0 -0.391,0.13 -0.391,0.261 0,0.261 0.261,0.391 0.652,0.391 0.131,0 0.261,0.131 0.392,0.392 0.13,0.261 0.13,0.522 0,0.783 l -3.916,10.442 c -0.13,0.13 -0.261,0.261 -0.522,0.261"
             style="fill:#171d27;fill-opacity:1;fill-rule:nonzero;stroke:none"
             id="path76" />
        </g>
        <g
           id="g78"
           transform="translate(109.1542,249.102)">
          <path
             d="m 0,0 c -1.436,0 -2.741,0.131 -3.916,0.261 -1.174,0.131 -2.219,0.522 -3.263,1.044 -0.391,0.131 -0.653,0.392 -0.783,0.522 -0.131,0.261 -0.131,0.522 -0.131,1.175 0,1.305 0,2.611 0.131,3.916 0.13,1.305 0.13,2.088 0.13,2.48 0,0.391 0.131,0.652 0.131,0.914 0.131,0.261 0.261,0.391 0.392,0.391 0.261,0 0.391,-0.13 0.391,-0.261 0,-0.13 0.131,-0.392 0.131,-0.522 0,-0.392 0,-0.783 0.13,-1.175 C -6.526,8.223 -6.526,7.832 -6.396,7.44 -5.874,5.613 -4.96,4.307 -3.655,3.655 -2.349,2.872 -0.914,2.48 0.653,2.48 c 1.435,0 2.741,0.261 3.654,0.783 1.045,0.522 1.697,1.305 2.219,2.219 0.522,0.914 0.653,1.697 0.653,2.611 0,0.783 -0.131,1.566 -0.392,2.349 -0.261,0.783 -0.652,1.566 -1.305,2.48 -0.653,0.914 -1.697,1.827 -3.133,3.002 l -2.088,1.697 c -2.741,2.088 -4.568,4.177 -5.743,6.004 -1.044,1.828 -1.566,3.785 -1.566,5.743 0,1.828 0.522,3.394 1.435,4.83 0.914,1.436 2.219,2.48 4.047,3.263 1.697,0.783 3.654,1.175 6.004,1.175 1.566,0 3.002,-0.131 4.046,-0.261 1.044,-0.131 1.958,-0.392 2.611,-0.523 0.522,-0.13 0.652,-0.261 0.652,-0.652 0,-0.392 0,-0.914 -0.13,-1.697 -0.131,-0.783 -0.131,-2.219 -0.131,-4.177 0,-1.044 -0.13,-1.436 -0.522,-1.436 -0.391,0 -0.522,0.261 -0.522,0.914 0,0.261 -0.13,0.653 -0.261,1.305 -0.131,0.653 -0.522,1.306 -1.044,1.958 -0.392,0.522 -0.914,1.044 -1.828,1.567 -0.783,0.522 -1.957,0.913 -3.654,0.913 -1.828,0 -3.263,-0.522 -4.308,-1.436 -1.044,-0.913 -1.566,-2.088 -1.566,-3.654 0,-1.175 0.392,-2.219 1.044,-3.263 0.653,-1.045 2.089,-2.35 4.177,-3.916 l 1.305,-1.044 c 1.958,-1.436 3.525,-2.872 4.699,-4.177 1.175,-1.306 1.958,-2.611 2.48,-4.047 0.522,-1.305 0.783,-2.741 0.783,-4.307 0,-1.436 -0.391,-2.871 -1.044,-4.568 C 10.573,4.568 9.398,3.263 7.57,2.088 6.396,1.305 5.09,0.783 3.785,0.522 2.611,0.131 1.305,0 0,0"
             style="fill:#171d27;fill-opacity:1;fill-rule:nonzero;stroke:none"
             id="path80" />
        </g>
        <g
           id="g82"
           transform="translate(168.9359,250.7988)">
          <path
             d="m 0,0 -10.442,31.196 c -0.261,0.913 -0.653,1.697 -0.914,2.219 -0.261,0.522 -0.652,1.044 -0.913,1.174 -0.261,0.131 -0.653,0.261 -1.045,0.392 -0.391,0.13 -0.652,0.13 -0.913,0.13 -0.522,0 -0.783,0.131 -0.783,0.392 0,0.261 0.391,0.392 1.044,0.392 1.305,0 2.48,0 3.654,-0.131 1.175,0 1.828,-0.13 2.089,-0.13 0.261,0 0.783,0 1.827,0.13 1.044,0 2.219,0.131 3.655,0.131 0.653,0 1.044,-0.131 1.044,-0.392 0,-0.261 -0.13,-0.392 -0.261,-0.392 -0.13,0 -0.391,-0.13 -0.653,-0.13 h -0.652 c -0.261,0 -0.392,-0.131 -0.653,-0.131 -0.391,-0.13 -0.522,-0.522 -0.522,-1.044 0,-0.391 0.131,-0.913 0.261,-1.697 0.261,-0.783 0.522,-1.696 0.783,-2.871 0.131,-0.522 0.392,-1.305 0.653,-2.48 0.392,-1.175 0.783,-2.35 1.175,-3.785 0.391,-1.436 0.913,-2.872 1.305,-4.308 C 0.261,17.229 0.653,15.663 1.044,14.358 1.436,13.053 1.827,11.747 2.219,10.703 2.48,9.659 2.741,8.876 2.872,8.484 h 0.261 l 9.528,25.714 c 0.261,0.652 0.522,1.174 0.653,1.436 0.13,0.261 0.391,0.391 0.652,0.391 0.261,0 0.522,-0.261 0.653,-0.653 0.13,-0.391 0.391,-0.913 0.783,-1.696 l 10.181,-24.8 h 0.131 c 0.13,0.652 0.522,1.697 0.783,3.002 0.391,1.305 0.783,2.871 1.305,4.568 0.522,1.697 1.044,3.524 1.566,5.221 0.522,1.828 1.045,3.524 1.567,5.091 0.522,1.566 0.913,3.002 1.305,4.177 0.13,0.522 0.261,1.044 0.391,1.566 0.131,0.522 0.131,0.914 0.131,1.305 0,0.392 -0.131,0.783 -0.522,1.044 -0.261,0.261 -0.914,0.392 -1.827,0.392 -0.523,0 -0.784,0.13 -0.784,0.392 0,0.261 0.392,0.391 1.175,0.391 1.305,0 2.48,0 3.394,-0.13 0.913,0 1.566,-0.131 1.697,-0.131 0.13,0 0.652,0 1.566,0.131 0.914,0 1.697,0.13 2.61,0.13 0.523,0 0.914,-0.13 0.914,-0.391 0,-0.392 -0.261,-0.523 -0.653,-0.523 -0.261,0 -0.522,0 -0.783,-0.13 -0.391,0 -0.652,-0.131 -0.913,-0.131 C 38.114,34.589 37.591,34.067 37.2,33.154 36.808,32.24 36.417,31.065 35.895,29.629 35.503,28.324 34.85,26.758 34.198,24.93 33.545,23.103 32.892,21.015 32.109,18.796 31.326,16.577 30.543,14.358 29.89,12.139 29.107,9.92 28.455,7.701 27.802,5.743 27.149,3.785 26.627,1.958 26.105,0.522 c -0.261,-0.783 -0.522,-1.436 -0.652,-1.827 -0.131,-0.392 -0.392,-0.522 -0.784,-0.522 -0.261,0 -0.391,0.13 -0.652,0.522 -0.261,0.391 -0.522,1.044 -0.914,1.827 L 12.922,25.191 h -0.13 C 12.661,24.8 12.269,24.017 11.878,22.842 11.486,21.667 10.964,20.362 10.312,18.796 9.659,17.229 9.006,15.533 8.354,13.705 7.701,11.878 7.048,10.181 6.265,8.484 5.613,6.787 4.96,5.221 4.438,3.916 3.916,2.611 3.394,1.566 3.002,0.783 2.48,-0.261 2.219,-0.914 1.958,-1.305 1.697,-1.697 1.436,-1.827 1.175,-1.827 c -0.261,0 -0.392,0.13 -0.522,0.391 C 0.392,-1.044 0.261,-0.522 0,0"
             style="fill:#171d27;fill-opacity:1;fill-rule:nonzero;stroke:none"
             id="path84" />
        </g>
        <g
           id="g86"
           transform="translate(223.712,263.9819)">
          <path
             d="m 0,0 v 8.615 4.568 2.872 1.696 c 0,0.523 0,0.914 -0.131,1.306 0,0.913 -0.13,1.566 -0.391,1.958 -0.261,0.391 -0.783,0.783 -1.697,0.913 -0.261,0 -0.522,0.131 -0.914,0.131 h -1.044 c -0.522,0 -0.783,0.13 -0.783,0.391 0,0.261 0.392,0.392 1.044,0.392 H -1.958 0 c 0.653,0 1.305,-0.131 1.827,-0.131 h 1.306 1.827 3.002 3.263 2.872 1.436 c 0.522,0.131 0.913,0.131 1.305,0.131 0.391,0 0.652,0.131 0.914,0.131 0.13,0 0.261,0 0.391,0.13 0.131,0 0.261,0.131 0.392,0.131 0.13,0 0.261,-0.131 0.261,-0.392 0,-0.131 0,-0.392 -0.131,-0.914 -0.13,-0.391 -0.13,-1.174 -0.261,-2.349 0,-0.131 0,-0.522 -0.13,-0.914 0,-0.391 0,-0.914 -0.131,-1.305 0,-0.392 0,-0.783 -0.13,-1.044 0,-0.131 -0.131,-0.261 -0.131,-0.392 0,-0.13 -0.13,-0.13 -0.261,-0.13 -0.261,0 -0.392,0.261 -0.392,0.652 0,0.131 0,0.392 -0.13,0.783 0,0.392 -0.131,0.653 -0.261,1.045 -0.131,0.522 -0.392,0.783 -0.783,1.174 -0.392,0.261 -1.175,0.522 -2.48,0.653 -0.131,0 -0.653,0 -1.306,0.13 h -2.218 c -0.784,0 -1.436,0 -2.219,0.131 H 6.526 c -0.261,0 -0.391,-0.131 -0.391,-0.522 V 7.309 c 0,-0.391 0.13,-0.522 0.391,-0.522 h 1.567 2.349 2.35 c 0.783,0 1.305,0 1.566,0.131 0.652,0 1.044,0.13 1.436,0.261 0.391,0.13 0.652,0.261 0.913,0.522 0.131,0.131 0.261,0.392 0.392,0.392 0.13,0.13 0.261,0.13 0.391,0.13 0.262,0 0.262,-0.13 0.262,-0.391 0,-0.131 0,-0.523 -0.131,-1.045 C 17.49,6.265 17.49,5.482 17.36,4.177 c 0,-0.522 0,-1.175 -0.131,-1.828 0,-0.783 -0.13,-1.305 -0.13,-1.435 0,-0.261 0,-0.392 -0.131,-0.653 C 16.968,0 16.838,0 16.577,0 c -0.261,0 -0.392,0.131 -0.392,0.392 0,0.261 0,0.522 -0.13,0.783 0,0.261 0,0.652 -0.131,0.913 -0.13,0.523 -0.391,0.914 -0.783,1.306 -0.392,0.391 -1.044,0.522 -1.958,0.652 -0.261,0 -0.652,0.131 -1.305,0.131 H 9.789 7.571 6.135 C 5.874,4.177 5.874,4.046 5.874,3.655 v -3.916 -2.35 -3.002 -2.219 c 0,-1.174 0.261,-1.957 0.522,-2.61 0.261,-0.653 0.783,-1.044 1.697,-1.175 0.783,-0.261 2.088,-0.261 3.785,-0.261 0.653,0 1.436,0 2.349,0.131 0.914,0 1.697,0.261 2.35,0.522 0.652,0.261 1.175,0.783 1.436,1.305 0.261,0.522 0.522,1.305 0.783,2.349 0.13,0.523 0.261,0.784 0.522,0.784 0.261,0 0.261,-0.131 0.391,-0.261 0,-0.131 0.131,-0.392 0.131,-0.653 0,-0.392 0,-0.914 -0.131,-1.697 -0.13,-0.783 -0.13,-1.436 -0.261,-2.219 -0.13,-0.783 -0.261,-1.305 -0.261,-1.566 -0.13,-0.653 -0.391,-1.044 -0.783,-1.044 -0.391,-0.131 -0.913,-0.131 -1.958,-0.131 h -4.829 c -1.436,0 -2.611,0 -3.655,0.131 -1.044,0.13 -1.958,0.13 -2.741,0.13 H 2.872 1.697 0 -1.697 c -0.652,0 -1.174,-0.13 -1.697,-0.13 -0.652,0 -1.044,0.13 -1.044,0.522 0,0.261 0.261,0.391 0.783,0.391 0.392,0 0.653,0 1.045,0.131 0.261,0 0.522,0.13 0.783,0.13 0.522,0.131 0.783,0.392 1.044,0.914 0.13,0.522 0.261,1.044 0.391,1.827 0.131,1.045 0.262,2.48 0.262,4.308 C 0,-4.307 0,-2.219 0,0"
             style="fill:#171d27;fill-opacity:1;fill-rule:nonzero;stroke:none"
             id="path88" />
        </g>
        <g
           id="g90"
           transform="translate(268.3539,273.5103)">
          <path
             d="m 0,0 v -6.135 -6.526 c 0,-1.827 0,-2.872 0.131,-3.394 0,-0.652 0.13,-1.305 0.13,-2.219 0.131,-0.783 0.131,-1.305 0.392,-1.566 0.261,-0.522 1.044,-0.914 2.088,-1.305 1.044,-0.392 2.48,-0.653 4.438,-0.653 2.48,0 4.699,0.261 6.396,0.783 1.827,0.522 3.393,1.436 4.96,2.741 1.566,1.306 2.61,3.002 3.263,5.221 0.652,2.219 0.913,4.569 0.913,7.049 0,2.088 -0.261,3.916 -0.783,5.482 -0.522,1.566 -1.044,3.002 -1.827,4.046 -0.783,1.175 -1.436,2.089 -2.219,2.741 -1.566,1.436 -3.133,2.48 -4.829,3.263 -1.697,0.653 -3.264,1.175 -4.96,1.436 -1.567,0.261 -3.003,0.261 -4.308,0.261 -0.522,0 -1.044,0 -1.827,-0.13 C 1.175,10.964 0.783,10.964 0.522,10.834 0.131,10.703 -0.131,10.312 -0.131,9.789 V 7.44 3.916 C 0,2.611 0,1.305 0,0 m -6.135,-9.528 v 8.614 4.569 2.871 1.697 c 0,0.522 0,0.914 -0.13,1.305 0,0.914 -0.131,1.567 -0.392,1.958 -0.261,0.392 -0.783,0.783 -1.697,0.914 -0.261,0 -0.522,0.13 -0.913,0.13 h -1.045 c -0.522,0 -0.783,0.131 -0.783,0.392 0,0.261 0.392,0.392 1.044,0.392 1.306,0 2.611,0 4.047,-0.131 1.436,0 2.349,-0.13 3.132,-0.13 0.784,0 1.828,0 3.264,0.13 1.435,0 2.871,0.131 4.307,0.131 1.566,0 3.133,0 4.96,-0.131 1.697,0 3.524,-0.261 5.221,-0.653 1.697,-0.391 3.394,-0.913 5.09,-1.696 1.697,-0.784 3.133,-1.828 4.569,-3.264 1.175,-1.305 2.349,-3.002 3.263,-5.09 1.044,-2.088 1.436,-4.568 1.436,-7.44 0,-3.133 -0.522,-5.743 -1.697,-8.093 -1.044,-2.349 -2.35,-4.176 -3.655,-5.612 -0.783,-0.783 -1.827,-1.567 -3.263,-2.48 -1.436,-0.914 -3.263,-1.697 -5.352,-2.35 -2.218,-0.652 -4.829,-0.913 -7.831,-0.913 -0.914,0 -1.827,0 -2.741,0.13 -0.914,0.131 -1.958,0.131 -2.872,0.261 -0.913,0 -1.827,0.131 -2.61,0.131 -0.783,0.13 -1.566,0.13 -2.219,0.13 H -4.177 -5.874 -7.57 -9.398 c -0.653,0 -1.044,0.131 -1.044,0.522 0,0.261 0.261,0.392 0.783,0.392 0.392,0 0.653,0 1.044,0.13 0.261,0 0.522,0.131 0.783,0.131 0.523,0.131 0.784,0.392 1.045,0.914 0.13,0.522 0.261,1.044 0.391,1.827 0.131,1.044 0.261,2.48 0.261,4.307 -0.13,1.697 0,3.786 0,6.005"
             style="fill:#171d27;fill-opacity:1;fill-rule:nonzero;stroke:none"
             id="path92" />
        </g>
        <g
           id="g94"
           transform="translate(321.7238,273.5103)">
          <path
             d="m 0,0 v -6.135 -6.526 c 0,-1.827 0,-2.872 0.131,-3.394 0,-0.652 0.13,-1.305 0.13,-2.219 0.131,-0.783 0.131,-1.305 0.392,-1.566 0.261,-0.522 1.044,-0.914 2.088,-1.305 1.044,-0.392 2.48,-0.653 4.438,-0.653 2.48,0 4.699,0.261 6.396,0.783 1.827,0.522 3.393,1.436 4.96,2.741 1.566,1.306 2.61,3.002 3.263,5.221 0.652,2.219 0.913,4.569 0.913,7.049 0,2.088 -0.261,3.916 -0.783,5.482 -0.522,1.566 -1.044,3.002 -1.827,4.046 -0.783,1.175 -1.436,2.089 -2.219,2.741 -1.566,1.436 -3.133,2.48 -4.829,3.263 -1.697,0.653 -3.264,1.175 -4.96,1.436 -1.567,0.261 -3.003,0.261 -4.308,0.261 -0.522,0 -1.044,0 -1.827,-0.13 C 1.175,10.964 0.783,10.964 0.522,10.834 0.131,10.703 -0.131,10.312 -0.131,9.789 V 7.44 3.916 C 0,2.611 0,1.305 0,0 m -6.135,-9.528 v 8.614 4.569 2.871 1.697 c 0,0.522 0,0.914 -0.13,1.305 0,0.914 -0.131,1.567 -0.392,1.958 -0.261,0.392 -0.783,0.783 -1.697,0.914 -0.261,0 -0.522,0.13 -0.913,0.13 h -1.045 c -0.522,0 -0.783,0.131 -0.783,0.392 0,0.261 0.392,0.392 1.044,0.392 1.306,0 2.611,0 4.047,-0.131 1.436,0 2.349,-0.13 3.132,-0.13 0.784,0 1.828,0 3.264,0.13 1.435,0 2.871,0.131 4.307,0.131 1.566,0 3.133,0 4.96,-0.131 1.697,0 3.524,-0.261 5.221,-0.653 1.697,-0.391 3.394,-0.913 5.09,-1.696 1.697,-0.784 3.133,-1.828 4.569,-3.264 1.175,-1.305 2.349,-3.002 3.263,-5.09 1.044,-2.088 1.436,-4.568 1.436,-7.44 0,-3.133 -0.522,-5.743 -1.697,-8.093 -1.044,-2.349 -2.35,-4.176 -3.655,-5.612 -0.783,-0.783 -1.827,-1.567 -3.263,-2.48 -1.436,-0.914 -3.263,-1.697 -5.352,-2.35 -2.218,-0.652 -4.829,-0.913 -7.831,-0.913 -0.914,0 -1.827,0 -2.741,0.13 -0.914,0.131 -1.958,0.131 -2.872,0.261 -0.913,0 -1.827,0.131 -2.61,0.131 -0.783,0.13 -1.566,0.13 -2.219,0.13 h -1.175 -1.697 -1.697 c -0.652,0 -1.174,-0.13 -1.696,-0.13 -0.653,0 -1.045,0.13 -1.045,0.522 0,0.261 0.261,0.391 0.784,0.391 0.391,0 0.652,0 1.044,0.131 0.261,0 0.522,0.13 0.783,0.13 0.522,0.131 0.783,0.392 1.044,0.914 0.131,0.522 0.261,1.044 0.392,1.828 0.13,1.044 0.261,2.48 0.261,4.307 -0.131,1.827 -0.131,3.916 -0.131,6.135"
             style="fill:#171d27;fill-opacity:1;fill-rule:nonzero;stroke:none"
             id="path96" />
        </g>
        <g
           id="g98"
           transform="translate(369.0895,263.9819)">
          <path
             d="m 0,0 v 8.615 4.568 2.872 1.696 c 0,0.523 0,0.914 -0.131,1.306 -0.13,1.566 -0.652,2.48 -1.696,2.741 -0.261,0.13 -0.522,0.13 -0.914,0.13 -0.261,0 -0.653,0.131 -0.914,0.131 -0.522,0 -0.783,0.13 -0.783,0.522 0,0.261 0.392,0.392 1.175,0.392 0.652,0 1.305,0 2.219,-0.131 0.783,0 1.566,0 2.349,-0.131 h 1.828 1.696 c 0.653,0 1.436,0 2.219,0.131 0.784,0 1.436,0.131 2.089,0.131 0.652,0 1.044,-0.131 1.044,-0.392 0,-0.392 -0.261,-0.522 -0.783,-0.522 -0.392,0 -0.914,0 -1.566,-0.131 C 7.179,21.798 6.657,21.537 6.526,21.015 6.265,20.623 6.135,19.97 6.135,19.057 c 0,-0.392 0,-0.783 -0.131,-1.306 V 16.055 13.183 8.615 0 -6.396 c 0,-1.827 0.131,-3.263 0.131,-4.307 0.13,-0.653 0.261,-1.175 0.522,-1.697 0.261,-0.392 0.783,-0.653 1.436,-0.783 0.391,0 0.783,-0.131 1.305,-0.131 0.522,0 0.914,-0.13 1.305,-0.13 0.522,0 0.783,-0.131 0.783,-0.392 0,-0.391 -0.261,-0.522 -0.913,-0.522 -1.567,0 -3.133,0 -4.569,0.131 -1.436,0 -2.48,0.13 -3.132,0.13 H 1.175 c -0.783,0 -1.567,0 -2.35,-0.13 -0.783,0 -1.566,-0.131 -2.219,-0.131 -0.652,0 -1.044,0.131 -1.044,0.522 0,0.261 0.261,0.392 0.783,0.392 0.392,0 0.653,0 1.044,0.13 0.262,0 0.523,0.131 0.784,0.131 0.522,0.13 0.783,0.391 1.044,0.783 0.261,0.392 0.391,1.044 0.391,1.697 0.131,1.044 0.262,2.48 0.262,4.307 C 0,-4.568 0,-2.349 0,0"
             style="fill:#171d27;fill-opacity:1;fill-rule:nonzero;stroke:none"
             id="path100" />
        </g>
        <g
           id="g102"
           transform="translate(400.8624,277.165)">
          <path
             d="m 0,0 0.522,-20.754 c 0.131,-1.827 0.261,-3.263 0.522,-4.046 0.261,-0.783 0.653,-1.305 1.175,-1.436 0.391,-0.13 0.783,-0.261 1.305,-0.261 0.392,0 0.914,-0.13 1.305,-0.13 0.523,0 0.784,-0.131 0.784,-0.392 0,-0.391 -0.392,-0.522 -1.175,-0.522 -1.566,0 -2.872,0 -3.916,0.131 -1.044,0 -1.697,0.13 -2.219,0.13 -0.261,0 -0.914,0 -1.827,-0.13 -1.044,0 -2.089,-0.131 -3.394,-0.131 -0.391,0 -0.653,0 -0.783,0.131 -0.131,0 -0.261,0.13 -0.261,0.391 0,0.261 0.261,0.392 0.783,0.392 h 1.044 c 0.392,0 0.783,0.13 1.175,0.261 0.653,0.261 1.044,0.783 1.175,1.566 0.13,0.914 0.261,2.35 0.261,4.568 l 0.391,29.108 c 0,0.522 0,0.913 0.131,1.174 0.13,0.262 0.261,0.523 0.522,0.523 0.261,0 0.522,-0.131 0.783,-0.392 C -1.436,9.92 -1.044,9.528 -0.653,9.137 -0.522,9.006 0,8.354 0.914,7.44 1.827,6.396 3.002,5.221 4.438,3.655 5.874,2.088 7.44,0.522 9.137,-1.305 c 1.697,-1.828 3.524,-3.524 5.351,-5.352 0.653,-0.652 1.436,-1.436 2.35,-2.349 0.913,-0.914 1.827,-1.828 2.741,-2.741 0.914,-0.914 1.827,-1.828 2.61,-2.741 0.784,-0.914 1.567,-1.567 2.089,-2.219 l 1.175,-1.175 h 0.261 L 25.191,4.177 c 0,1.436 -0.13,2.48 -0.391,3.132 -0.261,0.653 -0.653,1.045 -1.305,1.306 -0.392,0.13 -0.784,0.261 -1.306,0.261 h -1.305 c -0.522,0 -0.783,0.13 -0.783,0.391 0,0.131 0.131,0.261 0.392,0.392 0.261,0 0.522,0.13 0.913,0.13 1.305,0 2.48,0 3.524,-0.13 1.045,0 1.958,-0.131 2.48,-0.131 0.261,0 0.784,0 1.697,0.131 0.914,0 1.958,0.13 3.133,0.13 0.261,0 0.652,0 0.783,-0.13 0.261,0 0.261,-0.131 0.261,-0.392 0,-0.261 -0.261,-0.391 -0.914,-0.391 h -0.652 c -0.261,0 -0.522,0 -0.783,-0.131 C 30.282,8.484 29.76,8.093 29.499,7.57 29.238,6.918 29.107,6.004 29.107,4.568 l -0.522,-31.065 c 0,-1.044 -0.261,-1.566 -0.653,-1.566 -0.261,0 -0.522,0.13 -0.783,0.392 -0.261,0.261 -0.522,0.522 -0.783,0.783 -0.783,0.783 -1.697,1.697 -2.871,2.741 -1.175,1.044 -2.35,2.349 -3.655,3.654 -1.305,1.306 -2.611,2.611 -4.046,4.047 -1.436,1.436 -2.741,2.741 -4.047,4.046 -1.305,1.305 -2.741,2.741 -4.046,4.046 -1.305,1.306 -2.48,2.611 -3.524,3.786 C 3.133,-3.394 2.219,-2.349 1.436,-1.566 0.653,-0.783 0.13,-0.131 0,0 Z"
             style="fill:#171d27;fill-opacity:1;fill-rule:nonzero;stroke:none"
             id="path104" />
        </g>
        <g
           id="g106"
           transform="translate(482.6111,258.4998)">
          <path
             d="m 0,0 v -5.482 c 0,-0.653 0,-1.044 -0.131,-1.305 -0.13,-0.131 -0.261,-0.392 -0.522,-0.522 -1.044,-0.523 -2.219,-1.045 -3.654,-1.306 -1.306,-0.261 -2.741,-0.522 -4.177,-0.652 -1.436,-0.131 -2.741,-0.261 -4.046,-0.261 -3.003,0 -5.874,0.391 -8.615,1.044 -2.741,0.783 -5.091,1.958 -7.31,3.524 -2.088,1.566 -3.785,3.524 -5.09,6.004 -1.175,2.48 -1.827,5.352 -1.827,8.745 0,2.611 0.391,4.96 1.174,7.049 0.783,2.088 1.828,3.916 3.133,5.351 1.305,1.567 2.741,2.741 4.177,3.655 2.349,1.436 4.699,2.35 6.918,2.741 2.218,0.392 4.307,0.522 6.395,0.522 1.175,0 2.35,0 3.524,-0.13 1.175,-0.131 2.35,-0.261 3.264,-0.392 0.913,-0.13 1.566,-0.261 1.958,-0.261 0.522,-0.13 1.174,-0.261 1.957,-0.261 0.784,-0.131 1.436,-0.131 1.958,-0.261 0.261,0 0.392,-0.131 0.522,-0.261 0.131,-0.131 0.131,-0.261 0.131,-0.392 0,-0.13 0,-0.522 -0.131,-1.044 0,-0.522 -0.13,-1.305 -0.13,-2.349 -0.131,-1.045 -0.131,-2.741 -0.131,-4.699 0,-0.653 -0.13,-1.044 -0.522,-1.044 -0.261,0 -0.391,0.261 -0.522,0.652 -0.13,0.522 -0.261,1.175 -0.391,1.958 -0.131,0.783 -0.653,1.436 -1.306,2.219 -0.522,0.522 -1.305,1.044 -2.219,1.697 -1.044,0.652 -2.219,1.175 -3.654,1.566 -1.436,0.392 -3.133,0.653 -4.96,0.653 -0.914,0 -1.828,0 -3.002,-0.131 -1.045,-0.13 -2.219,-0.391 -3.264,-0.783 -1.174,-0.391 -2.349,-1.175 -3.524,-2.088 -1.436,-1.175 -2.48,-2.741 -3.263,-4.569 -0.783,-1.958 -1.175,-4.438 -1.175,-7.44 0,-3.524 0.653,-6.656 2.089,-9.528 1.436,-2.741 3.393,-4.96 6.004,-6.657 2.61,-1.566 5.613,-2.349 9.006,-2.349 0.653,0 1.305,0 2.089,0.13 0.783,0 1.435,0.131 2.088,0.392 0.392,0.13 0.653,0.391 0.783,0.652 0.131,0.261 0.261,0.653 0.261,1.175 v 4.699 3.263 2.48 c 0,0.914 -0.261,1.566 -0.522,1.958 -0.261,0.392 -0.783,0.653 -1.697,0.914 -0.13,0.13 -0.522,0.13 -0.783,0.13 h -1.044 c -0.522,0 -0.783,0.131 -0.783,0.392 0,0.261 0.391,0.522 1.044,0.522 1.305,0 2.611,0 4.046,-0.131 1.436,0 2.48,-0.13 3.133,-0.13 0.783,0 1.697,0 2.741,0.13 1.175,0 2.088,0.131 3.002,0.131 0.653,0 1.044,-0.131 1.044,-0.522 0,-0.261 -0.261,-0.392 -0.652,-0.392 -0.261,0 -0.783,0 -1.306,-0.13 C 1.436,8.745 0.914,8.484 0.653,8.093 0.392,7.701 0.261,7.048 0.261,6.135 V 3.524 C 0,2.349 0,1.175 0,0"
             style="fill:#171d27;fill-opacity:1;fill-rule:nonzero;stroke:none"
             id="path108" />
        </g>
        <g
           id="g110"
           transform="translate(13.0957,240.2915)">
          <path
             d="M 0,0 C 151.801,0.653 322.007,0.653 473.809,0 322.007,-0.653 151.671,-0.653 0,0"
             style="fill:#171d27;fill-opacity:1;fill-rule:nonzero;stroke:none"
             id="path112" />
        </g>
      </g>
    </g>
  </g>
</svg>
